<svg width="43" height="153" viewBox="0 0 43 153" fill="none" xmlns="http://www.w3.org/2000/svg">
<path d="M0 123.846C4.95911e-05 123.55 0.0663795 123.26 0.190624 123.013C0.314869 122.767 0.491455 122.575 0.698082 122.461C0.904705 122.347 1.13211 122.317 1.35157 122.375C1.57103 122.432 1.77272 122.575 1.93115 122.784L21.5075 148.724L41.0816 122.787C41.2951 122.514 41.5811 122.363 41.8779 122.366C42.1747 122.37 42.4586 122.527 42.6685 122.805C42.8783 123.084 42.9974 123.46 43 123.853C43.0025 124.246 42.8884 124.625 42.6822 124.908L22.3067 151.907C22.0944 152.189 21.8066 152.346 21.5064 152.346C21.2062 152.346 20.9184 152.189 20.7061 151.907L0.33054 124.908C0.118793 124.626 -3.8147e-05 124.244 0 123.846Z" fill="#333333"/>
<path d="M20.5901 146.875L20.5901 3.125C20.5901 2.2962 20.6954 1.50134 20.883 0.915291C21.0705 0.32924 21.3249 0 21.5901 0C21.8553 0 22.1097 0.32924 22.2972 0.915291C22.4847 1.50134 22.5901 2.2962 22.5901 3.125L22.5901 146.875C22.5901 147.704 22.4847 148.499 22.2972 149.085C22.1097 149.671 21.8553 150 21.5901 150C21.3249 150 21.0705 149.671 20.883 149.085C20.6954 148.499 20.5901 147.704 20.5901 146.875Z" fill="#333333"/>
</svg>
