<svg width="442" height="123" viewBox="0 0 442 123" fill="none" xmlns="http://www.w3.org/2000/svg">
<path d="M441.856 78.28H376.576V61.48H441.856V78.28Z" fill="#F5F2F0"/>
<path d="M271.886 95.4C271.886 86.0133 276.633 78.8133 286.126 73.8C295.726 68.7867 308.313 66.2267 323.886 66.12V62.92C323.886 59.08 323.46 56.04 322.606 53.8C321.753 51.56 320.206 49.9067 317.966 48.84C315.726 47.6667 312.42 47.08 308.046 47.08C302.82 47.08 298.126 47.72 293.966 49C289.913 50.1733 285.646 51.7733 281.166 53.8L275.726 42.28C277.433 40.8933 280.206 39.24 284.046 37.32C287.886 35.2933 292.473 33.5867 297.806 32.2C303.246 30.7067 308.9 29.96 314.766 29.96C323.3 29.96 329.966 31.08 334.766 33.32C339.673 35.56 343.14 39.0267 345.166 43.72C347.3 48.4133 348.366 54.8133 348.366 62.92V110.44H356.686V120.52C354.233 121.053 350.82 121.587 346.446 122.12C342.073 122.653 338.34 122.92 335.246 122.92C331.193 122.92 328.473 122.333 327.086 121.16C325.806 119.987 325.166 117.64 325.166 114.12V110.44C322.5 113.64 318.926 116.52 314.446 119.08C309.966 121.533 304.793 122.76 298.926 122.76C293.913 122.76 289.326 121.693 285.166 119.56C281.113 117.32 277.86 114.173 275.406 110.12C273.06 105.96 271.886 101.053 271.886 95.4ZM311.406 108.04C313.326 108.04 315.46 107.507 317.806 106.44C320.153 105.267 322.18 103.88 323.886 102.28V76.84C315.566 76.84 309.38 78.3333 305.326 81.32C301.38 84.3067 299.406 88.1467 299.406 92.84C299.406 97.64 300.473 101.373 302.606 104.04C304.74 106.707 307.673 108.04 311.406 108.04Z" fill="#F5F2F0"/>
<path d="M226.812 122.76C212.199 122.76 201.372 118.653 194.332 110.44C187.292 102.12 183.772 90.8133 183.772 76.52C183.772 66.8133 185.586 58.44 189.212 51.4C192.839 44.36 197.906 39.0267 204.412 35.4C211.026 31.6667 218.759 29.8 227.612 29.8C238.812 29.8 247.346 32.6267 253.212 38.28C259.186 43.9333 262.279 51.9333 262.492 62.28C262.492 69.1067 262.012 74.6 261.052 78.76H210.972C211.506 87.8267 213.692 94.76 217.532 99.56C221.479 104.253 226.972 106.6 234.012 106.6C237.959 106.6 242.066 105.96 246.332 104.68C250.706 103.293 254.226 101.747 256.892 100.04L261.372 109.8C258.599 112.893 253.852 115.827 247.132 118.6C240.519 121.373 233.746 122.76 226.812 122.76ZM237.052 68.2L237.212 61.48C237.212 54.76 236.306 49.64 234.492 46.12C232.679 42.6 229.586 40.84 225.212 40.84C220.732 40.84 217.266 42.8133 214.812 46.76C212.359 50.6 211.026 57.7467 210.812 68.2H237.052Z" fill="#F5F2F0"/>
<path d="M108.817 110.44L118.577 109V48.84L109.137 45.96V33.48L135.697 29.96H136.177L140.657 33.32V37.16L140.177 50.44H140.657C141.404 47.9867 143.111 45.16 145.777 41.96C148.444 38.6533 151.804 35.8267 155.857 33.48C160.017 31.0267 164.497 29.8 169.297 29.8C172.071 29.8 174.204 30.1733 175.697 30.92V58.76C173.991 57.48 172.124 56.4667 170.097 55.72C168.177 54.9733 165.671 54.6 162.577 54.6C158.737 54.6 155.271 55.1333 152.177 56.2C149.084 57.16 146.631 58.28 144.817 59.56V109L162.417 110.6V121H108.817V110.44Z" fill="#F5F2F0"/>
<path d="M56.6399 122.76C38.1866 122.76 24.1599 117.427 14.5599 106.76C4.95991 95.9867 0.159912 81.2667 0.159912 62.6C0.159912 50.0133 2.71991 39.08 7.83991 29.8C12.9599 20.4133 19.9999 13.2667 28.9599 8.35999C37.9199 3.34666 48.0532 0.839996 59.3599 0.839996C63.8399 0.839996 68.1599 1.10666 72.3199 1.64C76.4799 2.06666 81.4933 2.70666 87.3599 3.56C91.9466 4.30666 95.0933 4.73333 96.7999 4.84L94.8799 40.52H77.7599L72.3199 16.04C69.9733 13.48 65.0666 12.2 57.5999 12.2C49.3866 12.2 42.8799 16.3067 38.0799 24.52C33.3866 32.6267 31.0399 44.5733 31.0399 60.36C31.0399 75.72 33.3333 88.04 37.9199 97.32C42.6133 106.6 49.3866 111.24 58.2399 111.24C62.6133 111.24 65.9199 110.813 68.1599 109.96C70.5066 109.107 72.4799 107.88 74.0799 106.28L81.2799 89.16L96.9599 90.6L94.0799 116.68C90.9866 116.893 87.1999 117.693 82.7199 119.08C78.4533 120.253 74.3999 121.16 70.5599 121.8C66.8266 122.44 62.1866 122.76 56.6399 122.76Z" fill="#F5F2F0"/>
</svg>
