<svg width="642" height="311" viewBox="0 0 642 311" fill="none" xmlns="http://www.w3.org/2000/svg">
<path d="M442.856 79.28H377.576V62.48H442.856V79.28Z" fill="#F5F2F0"/>
<path d="M272.886 96.4C272.886 87.0133 277.633 79.8133 287.126 74.8C296.726 69.7867 309.313 67.2267 324.886 67.12V63.92C324.886 60.08 324.46 57.04 323.606 54.8C322.753 52.56 321.206 50.9067 318.966 49.84C316.726 48.6667 313.42 48.08 309.046 48.08C303.82 48.08 299.126 48.72 294.966 50C290.913 51.1733 286.646 52.7733 282.166 54.8L276.726 43.28C278.433 41.8933 281.206 40.24 285.046 38.32C288.886 36.2933 293.473 34.5867 298.806 33.2C304.246 31.7067 309.9 30.96 315.766 30.96C324.3 30.96 330.966 32.08 335.766 34.32C340.673 36.56 344.14 40.0267 346.166 44.72C348.3 49.4133 349.366 55.8133 349.366 63.92V111.44H357.686V121.52C355.233 122.053 351.82 122.587 347.446 123.12C343.073 123.653 339.34 123.92 336.246 123.92C332.193 123.92 329.473 123.333 328.086 122.16C326.806 120.987 326.166 118.64 326.166 115.12V111.44C323.5 114.64 319.926 117.52 315.446 120.08C310.966 122.533 305.793 123.76 299.926 123.76C294.913 123.76 290.326 122.693 286.166 120.56C282.113 118.32 278.86 115.173 276.406 111.12C274.06 106.96 272.886 102.053 272.886 96.4ZM312.406 109.04C314.326 109.04 316.46 108.507 318.806 107.44C321.153 106.267 323.18 104.88 324.886 103.28V77.84C316.566 77.84 310.38 79.3333 306.326 82.32C302.38 85.3067 300.406 89.1467 300.406 93.84C300.406 98.64 301.473 102.373 303.606 105.04C305.74 107.707 308.673 109.04 312.406 109.04Z" fill="#F5F2F0"/>
<path d="M227.812 123.76C213.199 123.76 202.372 119.653 195.332 111.44C188.292 103.12 184.772 91.8133 184.772 77.52C184.772 67.8133 186.586 59.44 190.212 52.4C193.839 45.36 198.906 40.0267 205.412 36.4C212.026 32.6667 219.759 30.8 228.612 30.8C239.812 30.8 248.346 33.6267 254.212 39.28C260.186 44.9333 263.279 52.9333 263.492 63.28C263.492 70.1067 263.012 75.6 262.052 79.76H211.972C212.506 88.8267 214.692 95.76 218.532 100.56C222.479 105.253 227.972 107.6 235.012 107.6C238.959 107.6 243.066 106.96 247.332 105.68C251.706 104.293 255.226 102.747 257.892 101.04L262.372 110.8C259.599 113.893 254.852 116.827 248.132 119.6C241.519 122.373 234.746 123.76 227.812 123.76ZM238.052 69.2L238.212 62.48C238.212 55.76 237.306 50.64 235.492 47.12C233.679 43.6 230.586 41.84 226.212 41.84C221.732 41.84 218.266 43.8133 215.812 47.76C213.359 51.6 212.026 58.7467 211.812 69.2H238.052Z" fill="#F5F2F0"/>
<path d="M109.817 111.44L119.577 110V49.84L110.137 46.96V34.48L136.697 30.96H137.177L141.657 34.32V38.16L141.177 51.44H141.657C142.404 48.9867 144.111 46.16 146.777 42.96C149.444 39.6533 152.804 36.8267 156.857 34.48C161.017 32.0267 165.497 30.8 170.297 30.8C173.071 30.8 175.204 31.1733 176.697 31.92V59.76C174.991 58.48 173.124 57.4667 171.097 56.72C169.177 55.9733 166.671 55.6 163.577 55.6C159.737 55.6 156.271 56.1333 153.177 57.2C150.084 58.16 147.631 59.28 145.817 60.56V110L163.417 111.6V122H109.817V111.44Z" fill="#F5F2F0"/>
<path d="M57.6399 123.76C39.1866 123.76 25.1599 118.427 15.5599 107.76C5.95991 96.9867 1.15991 82.2667 1.15991 63.6C1.15991 51.0133 3.71991 40.08 8.83991 30.8C13.9599 21.4133 20.9999 14.2667 29.9599 9.35999C38.9199 4.34666 49.0532 1.84 60.3599 1.84C64.8399 1.84 69.1599 2.10666 73.3199 2.64C77.4799 3.06666 82.4933 3.70666 88.3599 4.56C92.9466 5.30666 96.0933 5.73333 97.7999 5.84L95.8799 41.52H78.7599L73.3199 17.04C70.9733 14.48 66.0666 13.2 58.5999 13.2C50.3866 13.2 43.8799 17.3067 39.0799 25.52C34.3866 33.6267 32.0399 45.5733 32.0399 61.36C32.0399 76.72 34.3333 89.04 38.9199 98.32C43.6133 107.6 50.3866 112.24 59.2399 112.24C63.6133 112.24 66.9199 111.813 69.1599 110.96C71.5066 110.107 73.4799 108.88 75.0799 107.28L82.2799 90.16L97.9599 91.6L95.0799 117.68C91.9866 117.893 88.1999 118.693 83.7199 120.08C79.4533 121.253 75.3999 122.16 71.5599 122.8C67.8266 123.44 63.1866 123.76 57.6399 123.76Z" fill="#F5F2F0"/>
<path fill-rule="evenodd" clip-rule="evenodd" d="M442.856 79.28V62.48H377.576V79.28H442.856ZM443.856 80.28H376.576V61.48H443.856V80.28Z" fill="#333333"/>
<path fill-rule="evenodd" clip-rule="evenodd" d="M287.126 74.8C277.633 79.8133 272.886 87.0133 272.886 96.4C272.886 102.053 274.06 106.96 276.406 111.12C278.86 115.173 282.113 118.32 286.166 120.56C290.326 122.693 294.913 123.76 299.926 123.76C305.793 123.76 310.966 122.533 315.446 120.08C319.388 117.827 322.628 115.327 325.166 112.579C325.513 112.204 325.846 111.824 326.166 111.44V115.12C326.166 118.64 326.806 120.987 328.086 122.16C329.473 123.333 332.193 123.92 336.246 123.92C339.34 123.92 343.073 123.653 347.446 123.12C351.82 122.587 355.233 122.053 357.686 121.52V111.44H349.366V63.92C349.366 55.8133 348.3 49.4133 346.166 44.72C344.14 40.0267 340.673 36.56 335.766 34.32C330.966 32.08 324.3 30.96 315.766 30.96C309.9 30.96 304.246 31.7067 298.806 33.2C293.473 34.5867 288.886 36.2933 285.046 38.32C281.206 40.24 278.433 41.8933 276.726 43.28L282.166 54.8C286.646 52.7733 290.913 51.1733 294.966 50C299.126 48.72 303.82 48.08 309.046 48.08C313.42 48.08 316.726 48.6667 318.966 49.84C321.206 50.9067 322.753 52.56 323.606 54.8C324.46 57.04 324.886 60.08 324.886 63.92V67.12C309.313 67.2267 296.726 69.7867 287.126 74.8ZM323.886 66.1302C308.672 66.3377 296.245 68.9101 286.663 73.9136L286.659 73.9157C281.8 76.482 278.097 79.6387 275.611 83.4096C273.121 87.1874 271.886 91.5291 271.886 96.4C271.886 102.194 273.09 107.276 275.535 111.611L275.543 111.625L275.551 111.638C278.092 115.837 281.472 119.109 285.683 121.435L285.696 121.443L285.71 121.45C290.021 123.661 294.766 124.76 299.926 124.76C305.936 124.76 311.279 123.502 315.927 120.957L315.934 120.953L315.942 120.948C319.589 118.865 322.668 116.56 325.166 114.027V115.12C325.166 118.669 325.792 121.414 327.41 122.897L327.425 122.911L327.44 122.923C328.308 123.658 329.513 124.146 330.955 124.458C332.408 124.771 334.178 124.92 336.246 124.92C339.393 124.92 343.169 124.649 347.567 124.113C351.952 123.578 355.401 123.04 357.899 122.497L358.686 122.326V110.44H350.366V63.92C350.366 55.7482 349.294 49.1902 347.08 44.3146C344.95 39.3863 341.299 35.7475 336.186 33.4121C331.197 31.085 324.365 29.96 315.766 29.96C309.816 29.96 304.076 30.7171 298.548 32.2339C293.166 33.6336 288.51 35.3627 284.59 37.4303C280.738 39.3563 277.888 41.0473 276.096 42.5039L275.487 42.9982L281.682 56.1166L282.578 55.7111C287.022 53.701 291.244 52.1187 295.244 50.9606L295.252 50.9582L295.26 50.9558C299.308 49.7103 303.9 49.08 309.046 49.08C313.36 49.08 316.475 49.6637 318.502 50.7258L318.519 50.7347L318.536 50.7429C320.553 51.7032 321.913 53.1656 322.672 55.156C323.464 57.2346 323.886 60.1373 323.886 63.92V66.1302ZM318.806 107.44C316.46 108.507 314.326 109.04 312.406 109.04C308.673 109.04 305.74 107.707 303.606 105.04C301.473 102.373 300.406 98.64 300.406 93.84C300.406 89.1467 302.38 85.3067 306.326 82.32C310.215 79.4542 316.069 77.9634 323.886 77.8473C324.216 77.8424 324.549 77.84 324.886 77.84V103.28C323.18 104.88 321.153 106.267 318.806 107.44ZM318.375 106.537C316.124 107.559 314.139 108.04 312.406 108.04C308.944 108.04 306.311 106.821 304.387 104.415C302.443 101.986 301.406 98.5034 301.406 93.84C301.406 89.4817 303.215 85.9308 306.924 83.1219C310.57 80.4374 316.173 78.9637 323.886 78.8475V102.841C322.328 104.243 320.494 105.476 318.375 106.537Z" fill="#333333"/>
<path fill-rule="evenodd" clip-rule="evenodd" d="M195.332 111.44C202.372 119.653 213.199 123.76 227.812 123.76C234.746 123.76 241.519 122.373 248.132 119.6C254.852 116.827 259.599 113.893 262.372 110.8L257.892 101.04C257.615 101.217 257.329 101.393 257.034 101.567C254.485 103.066 251.252 104.437 247.332 105.68C243.066 106.96 238.959 107.6 235.012 107.6C227.972 107.6 222.479 105.253 218.532 100.56C214.835 95.938 212.67 89.338 212.039 80.76C212.014 80.4296 211.992 80.0963 211.972 79.76H262.052C263.012 75.6 263.492 70.1067 263.492 63.28C263.279 52.9333 260.186 44.9333 254.212 39.28C248.346 33.6267 239.812 30.8 228.612 30.8C219.759 30.8 212.026 32.6667 205.412 36.4C198.906 40.0267 193.839 45.36 190.212 52.4C186.586 59.44 184.772 67.8133 184.772 77.52C184.772 91.8133 188.292 103.12 195.332 111.44ZM254.903 38.5564C248.789 32.6675 239.97 29.8 228.612 29.8C219.617 29.8 211.709 31.6976 204.923 35.5277C198.235 39.2564 193.034 44.7393 189.323 51.942C185.609 59.1521 183.772 67.6894 183.772 77.52C183.772 91.9751 187.334 103.536 194.569 112.086L194.573 112.091C201.864 120.596 213.015 124.76 227.812 124.76C234.882 124.76 241.785 123.346 248.516 120.524C255.284 117.73 260.195 114.727 263.117 111.468L263.555 110.979L258.322 99.578L257.353 100.198C254.787 101.84 251.358 103.354 247.038 104.724C242.855 105.979 238.848 106.6 235.012 106.6C228.224 106.6 223.032 104.352 219.306 99.9257C215.794 95.5303 213.671 89.1792 213.041 80.76H262.848L263.027 79.9849C264.011 75.7208 264.492 70.1431 264.492 63.28V63.2697L264.492 63.2594C264.275 52.7198 261.116 44.4383 254.903 38.5564ZM238.212 62.48L238.052 69.2H211.812C211.819 68.8632 211.827 68.5299 211.837 68.2C212.113 58.2896 213.438 51.4763 215.812 47.76C218.266 43.8133 221.732 41.84 226.212 41.84C230.586 41.84 233.679 43.6 235.492 47.12C237.306 50.64 238.212 55.76 238.212 62.48ZM237.212 62.4684L237.076 68.2H212.837C212.97 63.4557 213.345 59.4534 213.955 56.1834C214.611 52.67 215.526 50.065 216.655 48.2984L216.662 48.2879C218.941 44.6215 222.093 42.84 226.212 42.84C228.265 42.84 229.953 43.2525 231.318 44.0292C232.677 44.8026 233.775 45.9703 234.603 47.578C236.309 50.888 237.211 55.8167 237.212 62.4684Z" fill="#333333"/>
<path fill-rule="evenodd" clip-rule="evenodd" d="M119.577 110L109.817 111.44V122H163.417V111.6L145.817 110V60.56C147.631 59.28 150.084 58.16 153.177 57.2C156.271 56.1333 159.737 55.6 163.577 55.6C166.671 55.6 169.177 55.9733 171.097 56.72C172.735 57.3234 174.269 58.101 175.697 59.0527C176.037 59.2786 176.37 59.5144 176.697 59.76V31.92C175.204 31.1733 173.071 30.8 170.297 30.8C165.497 30.8 161.017 32.0267 156.857 34.48C152.804 36.8267 149.444 39.6533 146.777 42.96C144.655 45.5074 143.14 47.8182 142.234 49.8925C142.002 50.4238 141.81 50.9397 141.657 51.44H141.177L141.657 38.16V34.32L137.177 30.96H136.697L110.137 34.48V46.96L119.577 49.84V110ZM118.577 109.137L108.817 110.577V123H164.417V110.687L146.817 109.087V61.0894C148.475 60.0048 150.684 59.021 153.474 58.1551L153.489 58.1504L153.503 58.1454C156.475 57.1205 159.83 56.6 163.577 56.6C166.603 56.6 168.973 56.9669 170.735 57.652L170.743 57.6553L170.752 57.6583C172.688 58.3719 174.469 59.3389 176.097 60.56L177.697 61.76V31.302L177.145 31.0256C175.45 30.1781 173.136 29.8 170.297 29.8C165.319 29.8 160.665 31.0744 156.353 33.6165C152.208 36.0165 148.754 38.918 146.004 42.326C144.485 44.1493 143.252 45.8779 142.32 47.5101L142.657 38.1781V33.82L137.511 29.96H136.631L109.137 33.6038V47.7004L118.577 50.5804V109.137Z" fill="#333333"/>
<path fill-rule="evenodd" clip-rule="evenodd" d="M14.8166 108.429L14.8133 108.425C5.00683 97.4202 0.159912 82.4381 0.159912 63.6C0.159912 50.8769 2.74831 39.7718 7.96328 30.3188C13.1696 20.7749 20.3423 13.4877 29.4756 8.4851C38.5986 3.38151 48.9017 0.839996 60.3599 0.839996C64.8751 0.839996 69.2335 1.10849 73.4345 1.6465C77.6104 2.07506 82.6344 2.71667 88.5039 3.57041L88.5122 3.57163L88.5206 3.57299C93.1118 4.32039 96.212 4.7388 97.8623 4.84195L98.8517 4.90379L96.8275 42.52H77.9577L72.4044 17.5298C71.3983 16.5273 69.8402 15.7049 67.6275 15.1276C65.2854 14.5166 62.2842 14.2 58.5999 14.2C50.8047 14.2 44.5985 18.0598 39.9441 26.0232C35.381 33.9063 33.0399 45.6443 33.0399 61.36C33.0399 76.6323 35.322 88.7814 39.8144 97.8728C42.1045 102.4 44.8704 105.733 48.0851 107.935C51.2921 110.132 54.9984 111.24 59.2399 111.24C63.5749 111.24 66.7357 110.813 68.8039 110.026L68.811 110.023L68.8182 110.02C70.9739 109.236 72.7733 108.129 74.2355 106.708L81.642 89.0972L99.0657 90.6973L95.9822 118.62L95.1487 118.678C92.1609 118.884 88.4553 119.661 84.0156 121.035L84.0004 121.04L83.9851 121.044C79.6905 122.225 75.6042 123.14 71.7267 123.786C67.9188 124.439 63.2187 124.76 57.6399 124.76C38.9893 124.76 24.6572 119.363 14.8166 108.429ZM75.0799 107.28C73.4799 108.88 71.5066 110.107 69.1599 110.96C66.9199 111.813 63.6132 112.24 59.2399 112.24C50.3866 112.24 43.6133 107.6 38.9199 98.32C34.3332 89.04 32.0399 76.72 32.0399 61.36C32.0399 45.5733 34.3866 33.6267 39.0799 25.52C43.8799 17.3067 50.3866 13.2 58.5999 13.2C66.0666 13.2 70.9732 14.48 73.3199 17.04L78.7599 41.52H95.8799L97.7999 5.84C96.0932 5.73333 92.9466 5.30666 88.3599 4.56C82.4932 3.70666 77.4799 3.06666 73.3199 2.64C69.1599 2.10666 64.8399 1.84 60.3599 1.84C49.0532 1.84 38.9199 4.34666 29.9599 9.35999C20.9999 14.2667 13.9599 21.4133 8.83991 30.8C3.71991 40.08 1.15991 51.0133 1.15991 63.6C1.15991 82.2667 5.95991 96.9867 15.5599 107.76C25.1599 118.427 39.1866 123.76 57.6399 123.76C63.1866 123.76 67.8266 123.44 71.5599 122.8C75.3999 122.16 79.4532 121.253 83.7199 120.08C88.1999 118.693 91.9866 117.893 95.0799 117.68L97.9599 91.6L82.2799 90.16L75.0799 107.28Z" fill="#333333"/>
<path d="M625.485 272.28C621.858 272.28 618.658 271 615.885 268.44C613.218 265.88 611.885 262.733 611.885 259C611.885 254.733 613.431 251.267 616.525 248.6C619.618 245.827 623.458 244.44 628.045 244.44C632.205 244.44 635.565 245.773 638.125 248.44C640.685 251.107 641.965 254.253 641.965 257.88C641.965 262.36 640.471 265.88 637.485 268.44C634.498 271 630.498 272.28 625.485 272.28Z" fill="#333333"/>
<path d="M532.806 310.84C530.566 310.84 528.219 310.68 525.766 310.36C523.419 310.04 521.713 309.613 520.646 309.08V289.88C521.393 290.413 522.993 290.893 525.446 291.32C527.899 291.853 530.139 292.12 532.166 292.12C537.606 292.12 541.926 290.413 545.126 287C548.326 283.587 551.259 278.253 553.926 271H544.646L514.726 194.2L507.686 192.28V182.04H554.886V192.28L543.686 194.2L556.966 236.76L561.766 252.92L565.606 236.76L577.926 194.04L568.326 192.28V182.04H604.486V192.28L596.806 194.04C592.326 207.8 586.833 223.96 580.326 242.52C573.926 261.08 570.353 271.213 569.606 272.92C566.406 281.773 563.153 288.867 559.846 294.2C556.646 299.64 552.859 303.747 548.486 306.52C544.113 309.4 538.886 310.84 532.806 310.84Z" fill="#333333"/>
<path d="M478.854 272.44C471.814 272.44 466.587 270.84 463.174 267.64C459.867 264.333 458.214 259.267 458.214 252.44V195.48H448.454V186.2L451.654 184.92C454.214 184.067 456.454 183.16 458.374 182.2C460.507 180.173 462.214 177.507 463.494 174.2C465.094 170.36 466.854 164.973 468.774 158.04H483.654L484.614 182.04H507.494V195.48H484.934V237.88C484.934 243.747 485.094 247.853 485.414 250.2C485.734 252.547 486.32 254.093 487.174 254.84C488.134 255.48 489.84 255.8 492.294 255.8C497.307 255.8 502.054 254.947 506.534 253.24L509.894 263.32C506.907 265.773 502.48 267.907 496.614 269.72C490.747 271.533 484.827 272.44 478.854 272.44Z" fill="#333333"/>
<path d="M414.302 168.28C410.142 168.28 406.782 167.053 404.222 164.6C401.662 162.147 400.382 159 400.382 155.16C400.382 150.68 401.769 147 404.542 144.12C407.422 141.24 411.262 139.8 416.062 139.8C420.862 139.8 424.542 141.027 427.102 143.48C429.662 145.933 430.942 149.08 430.942 152.92C430.942 157.507 429.502 161.24 426.622 164.12C423.742 166.893 419.689 168.28 414.462 168.28H414.302ZM404.542 198.84L393.822 195.8V183.8L425.822 179.96H426.142L431.102 183.32V259L440.702 260.44V271H394.622V260.44L404.542 259V198.84Z" fill="#333333"/>
<path d="M294.904 182.04H340.344V192.28L330.264 194.2L343.704 236.44L347.864 251L351.224 236.6L364.504 194.2L354.744 192.28V182.04H391.704V192.28L383.384 194.2L354.264 272.28H332.824L301.144 194.2L294.904 192.28V182.04Z" fill="#333333"/>
<path d="M265.552 168.28C261.392 168.28 258.032 167.053 255.472 164.6C252.912 162.147 251.632 159 251.632 155.16C251.632 150.68 253.019 147 255.792 144.12C258.672 141.24 262.512 139.8 267.312 139.8C272.112 139.8 275.792 141.027 278.352 143.48C280.912 145.933 282.192 149.08 282.192 152.92C282.192 157.507 280.752 161.24 277.872 164.12C274.992 166.893 270.939 168.28 265.712 168.28H265.552ZM255.792 198.84L245.072 195.8V183.8L277.072 179.96H277.392L282.352 183.32V259L291.952 260.44V271H245.872V260.44L255.792 259V198.84Z" fill="#333333"/>
<path d="M207.76 272.44C200.72 272.44 195.493 270.84 192.08 267.64C188.773 264.333 187.12 259.267 187.12 252.44V195.48H177.36V186.2L180.56 184.92C183.12 184.067 185.36 183.16 187.28 182.2C189.413 180.173 191.12 177.507 192.4 174.2C194 170.36 195.76 164.973 197.68 158.04H212.56L213.52 182.04H236.4V195.48H213.84V237.88C213.84 243.747 214 247.853 214.32 250.2C214.64 252.547 215.227 254.093 216.08 254.84C217.04 255.48 218.747 255.8 221.2 255.8C226.213 255.8 230.96 254.947 235.44 253.24L238.8 263.32C235.813 265.773 231.387 267.907 225.52 269.72C219.653 271.533 213.733 272.44 207.76 272.44Z" fill="#333333"/>
</svg>
