<svg width="54" height="36" viewBox="0 0 54 36" fill="none" xmlns="http://www.w3.org/2000/svg">
<path d="M53.7124 20.4644C52.3141 29.2567 42.7314 34.7648 35.7932 35.9816C35.6059 36.0142 35.4135 36.0034 35.2311 35.95C35.0486 35.8965 34.881 35.8019 34.7412 35.6735C34.6014 35.5451 34.4932 35.3863 34.425 35.2095C34.3568 35.0326 34.3304 34.8425 34.3479 34.6539L34.5954 31.7371C34.6137 31.4728 34.7189 31.2219 34.8947 31.0231C35.0705 30.8243 35.3071 30.6888 35.568 30.6374C43.0482 29.3738 47.4993 18.2047 42.9195 19.5423C38.1616 20.9292 31.3162 18.9641 30.1555 12.4907C28.9948 6.01727 33.9853 0.00246424 42.3441 0.00246424C50.703 0.00246424 55.2208 10.9854 53.7124 20.4644ZM12.3513 0C3.99623 0 -0.993079 6.01111 0.166391 12.4857C1.32586 18.9604 8.17379 20.9242 12.9317 19.5373C17.5102 18.2022 13.0554 29.3713 5.58014 30.6325C5.31909 30.6835 5.08224 30.8189 4.90637 31.0177C4.7305 31.2166 4.62545 31.4677 4.60752 31.7321L4.36004 34.6489C4.34255 34.8376 4.36894 35.0277 4.43716 35.2045C4.50538 35.3814 4.61359 35.5402 4.75338 35.6686C4.89318 35.797 5.06081 35.8916 5.24325 35.945C5.42569 35.9985 5.61803 36.0093 5.80535 35.9767C12.7424 34.7611 22.325 29.2518 23.7246 20.4595C25.2317 10.9854 20.7065 0.00246424 12.3513 0.00246424V0Z" fill="#333333"/>
</svg>
