<svg width="319" height="183" viewBox="0 0 319 183" fill="none" xmlns="http://www.w3.org/2000/svg">
<path fill-rule="evenodd" clip-rule="evenodd" d="M238.006 1.59998L274.006 6.39999V223.2L317.206 228V254H159.206V228L205.606 223.6V64.4C205.29 64.4929 204.957 64.5884 204.606 64.6864C199.922 65.996 192.122 67.7672 181.206 70C169.74 72.1333 161.073 73.4667 155.206 74L150.806 42.4C165.74 39.4666 181.473 34 198.006 26C214.54 18 227.74 9.86665 237.606 1.59998H238.006ZM204.606 65.7243C199.855 67.0374 192.113 68.7897 181.407 70.9797L181.398 70.9815L181.389 70.9831C169.915 73.1178 161.211 74.4582 155.297 74.9959L154.347 75.0822L149.685 41.601L150.613 41.4187C165.447 38.5049 181.099 33.0699 197.571 25.0998C214.059 17.1218 227.181 9.03008 236.964 0.833454L237.243 0.599976H238.073L275.006 5.52447V222.305L318.206 227.105V255H158.206V227.09L204.606 222.69V65.7243Z" fill="#F5F2F0"/>
<path fill-rule="evenodd" clip-rule="evenodd" d="M-81.5567 226.254L-81.5606 226.249C-100.434 204.141 -109.8 172.81 -109.8 132.4C-109.8 103.482 -104.445 79.1733 -93.6786 59.5224C-82.9294 39.6372 -68.5282 24.952 -50.4681 15.5163C-32.4479 5.83491 -12.552 1 9.19997 1C43.5536 1 69.9931 11.7452 88.3575 33.3472C106.972 54.6628 116.2 85.7346 116.2 126.4C116.2 155.318 110.846 179.756 100.082 199.67C89.6026 219.554 75.4736 234.502 57.689 244.472L57.6788 244.478C39.9207 254.164 20.154 259 -1.60004 259C-35.9615 259 -62.6627 248.117 -81.5567 226.254ZM87.6 34C69.4666 12.6667 43.3333 2 9.19997 2C-12.4 2 -32.1334 6.8 -50 16.4C-67.8667 25.7333 -82.1334 40.2667 -92.8 60C-103.467 79.4667 -108.8 103.6 -108.8 132.4C-108.8 172.667 -99.4667 203.733 -80.8 225.6C-62.1334 247.2 -35.7334 258 -1.60004 258C20 258 39.6 253.2 57.2 243.6C74.8 233.733 88.8 218.933 99.2 199.2C109.867 179.467 115.2 155.2 115.2 126.4C115.2 85.8667 106 55.0667 87.6 34ZM40.2171 71.3843L40.2155 71.3758C37.5622 56.517 33.2083 45.9382 27.264 39.4771L27.2574 39.4699L27.251 39.4626C21.3321 32.7717 13.3529 29.4 3.19995 29.4C-3.65719 29.4 -9.62179 31.3919 -14.7366 35.3648C-19.8656 39.3486 -24.193 45.3664 -27.6811 53.4944C-34.6666 69.7719 -38.2 94.3077 -38.2 127.2C-38.2 164.245 -34.8632 190.88 -28.2735 207.224C-24.9897 215.235 -20.6867 221.167 -15.4032 225.098C-10.1289 229.021 -3.81108 231 3.59996 231C10.4561 231 16.4023 229 21.4826 225.013C26.5774 221.015 30.8555 214.974 34.2778 206.813C41.1322 190.468 44.6 165.431 44.6 131.6C44.6 106.295 43.1341 86.2347 40.2187 71.3928L40.2171 71.3843ZM-29.2 207.6C-35.8667 191.067 -39.2 164.267 -39.2 127.2C-39.2 61.3334 -25.0667 28.4 3.19995 28.4C13.6 28.4 21.8666 31.8667 28 38.8C34.1333 45.4667 38.5333 56.2667 41.2 71.2C44.1333 86.1334 45.6 106.267 45.6 131.6C45.6 165.467 42.1333 190.667 35.2 207.2C28.2666 223.733 17.7333 232 3.59996 232C-11.6 232 -22.5334 223.867 -29.2 207.6Z" fill="#F5F2F0"/>
</svg>
